<svg id="Layer_1" data-name="Layer 1" xmlns="http://www.w3.org/2000/svg" viewBox="0 0 428.83 320.75"><defs><style>.cls-1{font-size:80px;fill:#296737;font-family:Montserrat-Black, Montserrat;font-weight:800;}.cls-2{letter-spacing:0em;}.cls-3{letter-spacing:-0.01em;}.cls-4{fill:none;stroke:#96c189;stroke-linecap:round;stroke-linejoin:round;stroke-width:10px;}.cls-5{fill:#96c189;}</style></defs><title>logo main</title><text class="cls-1" transform="translate(0 299.15)">p<tspan class="cls-2" x="56" y="0">r</tspan><tspan x="92.08" y="0">emium</tspan></text><text class="cls-1" transform="translate(173.89 223.77)">pupil</text><text class="cls-1" transform="translate(253.22 137.38)"><tspan class="cls-3">m</tspan><tspan x="82.4" y="0">y</tspan></text><polyline class="cls-4" points="32.32 233.66 139.81 233.66 139.81 160.99 231.03 160.99 231.03 72.45 336 72.45"/><circle class="cls-5" cx="14.83" cy="233.66" r="9.61"/><path class="cls-4" d="M582,130.77a22.66,22.66,0,0,1,22.65,22.66c0,12.25-13.06,21.62-11.24,27.91" transform="translate(-218.44 -125.77)"/><path class="cls-4" d="M582,130.77a22.66,22.66,0,0,0-22.66,22.66c0,12.25,13.06,21.62,11.25,27.91" transform="translate(-218.44 -125.77)"/><line class="cls-4" x1="352.38" y1="72.05" x2="375.33" y2="72.05"/></svg>